<svg width="32" height="32" viewBox="0 0 32 32" fill="none" xmlns="http://www.w3.org/2000/svg">
<g clip-path="url(#clip0_6_2)">
<rect width="1440" height="800" fill="black"/>
<g opacity="0.5">
<path d="M16.49 31.7599C16.427 31.7564 16.3671 31.7317 16.3199 31.6899C16.2744 31.6411 16.2493 31.5767 16.25 31.5099C16.2479 31.4766 16.253 31.4433 16.2651 31.4122C16.2772 31.3811 16.2959 31.3531 16.3199 31.3299C16.3678 31.2864 16.4302 31.2622 16.495 31.2622C16.5597 31.2622 16.6221 31.2864 16.6699 31.3299C16.6948 31.3529 16.7147 31.3808 16.7284 31.4117C16.7422 31.4427 16.7495 31.4761 16.75 31.5099C16.7469 31.5779 16.7183 31.6421 16.6699 31.6899C16.6197 31.7331 16.5562 31.7578 16.49 31.7599Z" fill="#FFFBFB"/>
<path d="M0.48999 31.7599C0.42706 31.7564 0.367165 31.7317 0.319992 31.6899C0.27161 31.6421 0.243038 31.5779 0.23999 31.5099C0.24044 31.4761 0.247753 31.4427 0.261505 31.4117C0.275257 31.3808 0.295163 31.3529 0.319992 31.3299C0.367863 31.2864 0.430252 31.2622 0.49498 31.2622C0.559708 31.2622 0.622112 31.2864 0.669983 31.3299C0.694812 31.3529 0.714703 31.3808 0.728455 31.4117C0.742206 31.4427 0.749535 31.4761 0.749985 31.5099C0.746937 31.5779 0.718365 31.6421 0.669983 31.6899C0.619743 31.7331 0.556226 31.7578 0.48999 31.7599Z" fill="#FFFBFB"/>
<path d="M16.49 31.7599C16.427 31.7564 16.3671 31.7317 16.3199 31.6899C16.2744 31.6411 16.2493 31.5767 16.25 31.5099C16.2479 31.4766 16.253 31.4433 16.2651 31.4122C16.2772 31.3811 16.2959 31.3531 16.3199 31.3299C16.3678 31.2864 16.4302 31.2622 16.495 31.2622C16.5597 31.2622 16.6221 31.2864 16.6699 31.3299C16.6948 31.3529 16.7147 31.3808 16.7284 31.4117C16.7422 31.4427 16.7495 31.4761 16.75 31.5099C16.7469 31.5779 16.7183 31.6421 16.6699 31.6899C16.6197 31.7331 16.5562 31.7578 16.49 31.7599Z" fill="#FFFBFB"/>
<path d="M0.48999 31.7599C0.42706 31.7564 0.367165 31.7317 0.319992 31.6899C0.27161 31.6421 0.243038 31.5779 0.23999 31.5099C0.24044 31.4761 0.247753 31.4427 0.261505 31.4117C0.275257 31.3808 0.295163 31.3529 0.319992 31.3299C0.367863 31.2864 0.430252 31.2622 0.49498 31.2622C0.559708 31.2622 0.622112 31.2864 0.669983 31.3299C0.694812 31.3529 0.714703 31.3808 0.728455 31.4117C0.742206 31.4427 0.749535 31.4761 0.749985 31.5099C0.746937 31.5779 0.718365 31.6421 0.669983 31.6899C0.619743 31.7331 0.556226 31.7578 0.48999 31.7599Z" fill="#FFFBFB"/>
<path d="M16.49 31.7599C16.427 31.7564 16.3671 31.7317 16.3199 31.6899C16.2744 31.6411 16.2493 31.5767 16.25 31.5099C16.2479 31.4766 16.253 31.4433 16.2651 31.4122C16.2772 31.3811 16.2959 31.3531 16.3199 31.3299C16.3678 31.2864 16.4302 31.2622 16.495 31.2622C16.5597 31.2622 16.6221 31.2864 16.6699 31.3299C16.6948 31.3529 16.7147 31.3808 16.7284 31.4117C16.7422 31.4427 16.7495 31.4761 16.75 31.5099C16.7469 31.5779 16.7183 31.6421 16.6699 31.6899C16.6197 31.7331 16.5562 31.7578 16.49 31.7599Z" fill="#FFFBFB"/>
<path d="M16.49 15.7599C16.425 15.7564 16.364 15.7277 16.3199 15.6799C16.2961 15.6588 16.2775 15.6324 16.2653 15.603C16.2532 15.5735 16.248 15.5417 16.25 15.5099C16.2479 15.4766 16.253 15.4433 16.2651 15.4122C16.2772 15.3811 16.2959 15.3531 16.3199 15.3299C16.3678 15.2864 16.4302 15.2622 16.495 15.2622C16.5597 15.2622 16.6221 15.2864 16.6699 15.3299C16.6958 15.3521 16.7164 15.3798 16.7302 15.4109C16.744 15.4421 16.7508 15.4759 16.75 15.5099C16.7493 15.5423 16.7419 15.5742 16.7281 15.6035C16.7143 15.6328 16.6945 15.6588 16.6699 15.6799C16.6469 15.7048 16.6191 15.7246 16.5882 15.7384C16.5572 15.7521 16.5238 15.7595 16.49 15.7599Z" fill="#FFFBFB"/>
<path d="M16.49 31.7599C16.427 31.7564 16.3671 31.7317 16.3199 31.6899C16.2744 31.6411 16.2493 31.5767 16.25 31.5099C16.2479 31.4766 16.253 31.4433 16.2651 31.4122C16.2772 31.3811 16.2959 31.3531 16.3199 31.3299C16.3678 31.2864 16.4302 31.2622 16.495 31.2622C16.5597 31.2622 16.6221 31.2864 16.6699 31.3299C16.6948 31.3529 16.7147 31.3808 16.7284 31.4117C16.7422 31.4427 16.7495 31.4761 16.75 31.5099C16.7469 31.5779 16.7183 31.6421 16.6699 31.6899C16.6197 31.7331 16.5562 31.7578 16.49 31.7599Z" fill="#FFFBFB"/>
<path d="M0.48999 31.7599C0.42706 31.7564 0.367165 31.7317 0.319992 31.6899C0.27161 31.6421 0.243038 31.5779 0.23999 31.5099C0.24044 31.4761 0.247753 31.4427 0.261505 31.4117C0.275257 31.3808 0.295163 31.3529 0.319992 31.3299C0.367863 31.2864 0.430252 31.2622 0.49498 31.2622C0.559708 31.2622 0.622112 31.2864 0.669983 31.3299C0.694812 31.3529 0.714703 31.3808 0.728455 31.4117C0.742206 31.4427 0.749535 31.4761 0.749985 31.5099C0.746937 31.5779 0.718365 31.6421 0.669983 31.6899C0.619743 31.7331 0.556226 31.7578 0.48999 31.7599Z" fill="#FFFBFB"/>
<path d="M0.490058 15.7599C0.426758 15.7581 0.366311 15.7332 0.32006 15.6899C0.271678 15.6421 0.243106 15.5779 0.240058 15.5099C0.239231 15.4759 0.245968 15.4421 0.259803 15.4109C0.273638 15.3798 0.294228 15.3521 0.32006 15.3299C0.367931 15.2864 0.43032 15.2622 0.495048 15.2622C0.559776 15.2622 0.62218 15.2864 0.670051 15.3299C0.69488 15.3529 0.714771 15.3808 0.728523 15.4117C0.742274 15.4427 0.749603 15.4761 0.750053 15.5099C0.747005 15.5779 0.718433 15.6421 0.670051 15.6899C0.619811 15.7331 0.556294 15.7578 0.490058 15.7599Z" fill="#FFFBFB"/>
<path d="M16.49 15.7599C16.425 15.7564 16.364 15.7277 16.3199 15.6799C16.2961 15.6588 16.2775 15.6324 16.2653 15.603C16.2532 15.5735 16.248 15.5417 16.25 15.5099C16.2479 15.4766 16.253 15.4433 16.2651 15.4122C16.2772 15.3811 16.2959 15.3531 16.3199 15.3299C16.3678 15.2864 16.4302 15.2622 16.495 15.2622C16.5597 15.2622 16.6221 15.2864 16.6699 15.3299C16.6958 15.3521 16.7164 15.3798 16.7302 15.4109C16.744 15.4421 16.7508 15.4759 16.75 15.5099C16.7493 15.5423 16.7419 15.5742 16.7281 15.6035C16.7143 15.6328 16.6945 15.6588 16.6699 15.6799C16.6469 15.7048 16.6191 15.7246 16.5882 15.7384C16.5572 15.7521 16.5238 15.7595 16.49 15.7599Z" fill="#FFFBFB"/>
<path d="M0.48999 31.7599C0.42706 31.7564 0.367165 31.7317 0.319992 31.6899C0.27161 31.6421 0.243038 31.5779 0.23999 31.5099C0.24044 31.4761 0.247753 31.4427 0.261505 31.4117C0.275257 31.3808 0.295163 31.3529 0.319992 31.3299C0.367863 31.2864 0.430252 31.2622 0.49498 31.2622C0.559708 31.2622 0.622112 31.2864 0.669983 31.3299C0.694812 31.3529 0.714703 31.3808 0.728455 31.4117C0.742206 31.4427 0.749535 31.4761 0.749985 31.5099C0.746937 31.5779 0.718365 31.6421 0.669983 31.6899C0.619743 31.7331 0.556226 31.7578 0.48999 31.7599Z" fill="#FFFBFB"/>
<path d="M0.490058 15.7599C0.426758 15.7581 0.366311 15.7332 0.32006 15.6899C0.271678 15.6421 0.243106 15.5779 0.240058 15.5099C0.239231 15.4759 0.245968 15.4421 0.259803 15.4109C0.273638 15.3798 0.294228 15.3521 0.32006 15.3299C0.367931 15.2864 0.43032 15.2622 0.495048 15.2622C0.559776 15.2622 0.62218 15.2864 0.670051 15.3299C0.69488 15.3529 0.714771 15.3808 0.728523 15.4117C0.742274 15.4427 0.749603 15.4761 0.750053 15.5099C0.747005 15.5779 0.718433 15.6421 0.670051 15.6899C0.619811 15.7331 0.556294 15.7578 0.490058 15.7599Z" fill="#FFFBFB"/>
<path d="M16.49 15.7599C16.425 15.7564 16.364 15.7277 16.3199 15.6799C16.2961 15.6588 16.2775 15.6324 16.2653 15.603C16.2532 15.5735 16.248 15.5417 16.25 15.5099C16.2479 15.4766 16.253 15.4433 16.2651 15.4122C16.2772 15.3811 16.2959 15.3531 16.3199 15.3299C16.3678 15.2864 16.4302 15.2622 16.495 15.2622C16.5597 15.2622 16.6221 15.2864 16.6699 15.3299C16.6958 15.3521 16.7164 15.3798 16.7302 15.4109C16.744 15.4421 16.7508 15.4759 16.75 15.5099C16.7493 15.5423 16.7419 15.5742 16.7281 15.6035C16.7143 15.6328 16.6945 15.6588 16.6699 15.6799C16.6469 15.7048 16.6191 15.7246 16.5882 15.7384C16.5572 15.7521 16.5238 15.7595 16.49 15.7599Z" fill="#FFFBFB"/>
<path d="M16.49 15.7599C16.425 15.7564 16.364 15.7277 16.3199 15.6799C16.2961 15.6588 16.2775 15.6324 16.2653 15.603C16.2532 15.5735 16.248 15.5417 16.25 15.5099C16.2479 15.4766 16.253 15.4433 16.2651 15.4122C16.2772 15.3811 16.2959 15.3531 16.3199 15.3299C16.3678 15.2864 16.4302 15.2622 16.495 15.2622C16.5597 15.2622 16.6221 15.2864 16.6699 15.3299C16.6958 15.3521 16.7164 15.3798 16.7302 15.4109C16.744 15.4421 16.7508 15.4759 16.75 15.5099C16.7493 15.5423 16.7419 15.5742 16.7281 15.6035C16.7143 15.6328 16.6945 15.6588 16.6699 15.6799C16.6469 15.7048 16.6191 15.7246 16.5882 15.7384C16.5572 15.7521 16.5238 15.7595 16.49 15.7599Z" fill="#FFFBFB"/>
<path d="M0.490058 15.7599C0.426758 15.7581 0.366311 15.7332 0.32006 15.6899C0.271678 15.6421 0.243106 15.5779 0.240058 15.5099C0.239231 15.4759 0.245968 15.4421 0.259803 15.4109C0.273638 15.3798 0.294228 15.3521 0.32006 15.3299C0.367931 15.2864 0.43032 15.2622 0.495048 15.2622C0.559776 15.2622 0.62218 15.2864 0.670051 15.3299C0.69488 15.3529 0.714771 15.3808 0.728523 15.4117C0.742274 15.4427 0.749603 15.4761 0.750053 15.5099C0.747005 15.5779 0.718433 15.6421 0.670051 15.6899C0.619811 15.7331 0.556294 15.7578 0.490058 15.7599Z" fill="#FFFBFB"/>
<path d="M0.490058 15.7599C0.426758 15.7581 0.366311 15.7332 0.32006 15.6899C0.271678 15.6421 0.243106 15.5779 0.240058 15.5099C0.239231 15.4759 0.245968 15.4421 0.259803 15.4109C0.273638 15.3798 0.294228 15.3521 0.32006 15.3299C0.367931 15.2864 0.43032 15.2622 0.495048 15.2622C0.559776 15.2622 0.62218 15.2864 0.670051 15.3299C0.69488 15.3529 0.714771 15.3808 0.728523 15.4117C0.742274 15.4427 0.749603 15.4761 0.750053 15.5099C0.747005 15.5779 0.718433 15.6421 0.670051 15.6899C0.619811 15.7331 0.556294 15.7578 0.490058 15.7599Z" fill="#FFFBFB"/>
</g>
<g opacity="0.5">
<path d="M16.49 16.0101C16.427 16.0194 16.363 16.0194 16.3 16.0101C16.2408 15.9828 16.1867 15.9456 16.14 15.9001C16.0495 15.8061 15.9992 15.6805 16 15.5501C15.9896 15.4872 15.9896 15.423 16 15.3601C16.0314 15.3033 16.0683 15.2497 16.11 15.2001C16.2074 15.1122 16.3339 15.0636 16.465 15.0636C16.5962 15.0636 16.7226 15.1122 16.82 15.2001C16.8623 15.2529 16.8992 15.3098 16.93 15.3701C16.9405 15.433 16.9405 15.4972 16.93 15.5601C16.9308 15.6905 16.8806 15.8161 16.79 15.9101C16.7434 15.9556 16.6892 15.9928 16.63 16.0201C16.5831 16.0214 16.5362 16.018 16.49 16.0101Z" fill="white"/>
<path d="M16.49 16.0101C16.427 16.0194 16.363 16.0194 16.3 16.0101C16.2408 15.9828 16.1867 15.9456 16.14 15.9001C16.0495 15.8061 15.9992 15.6805 16 15.5501C15.9896 15.4872 15.9896 15.423 16 15.3601C16.0314 15.3033 16.0683 15.2497 16.11 15.2001C16.2074 15.1122 16.3339 15.0636 16.465 15.0636C16.5962 15.0636 16.7226 15.1122 16.82 15.2001C16.8623 15.2529 16.8992 15.3098 16.93 15.3701C16.9405 15.433 16.9405 15.4972 16.93 15.5601C16.9308 15.6905 16.8806 15.8161 16.79 15.9101C16.7434 15.9556 16.6892 15.9928 16.63 16.0201C16.5831 16.0214 16.5362 16.018 16.49 16.0101Z" fill="white"/>
<path d="M16.49 16.0101C16.427 16.0194 16.363 16.0194 16.3 16.0101C16.2408 15.9828 16.1867 15.9456 16.14 15.9001C16.0495 15.8061 15.9992 15.6805 16 15.5501C15.9896 15.4872 15.9896 15.423 16 15.3601C16.0314 15.3033 16.0683 15.2497 16.11 15.2001C16.2074 15.1122 16.3339 15.0636 16.465 15.0636C16.5962 15.0636 16.7226 15.1122 16.82 15.2001C16.8623 15.2529 16.8992 15.3098 16.93 15.3701C16.9405 15.433 16.9405 15.4972 16.93 15.5601C16.9308 15.6905 16.8806 15.8161 16.79 15.9101C16.7434 15.9556 16.6892 15.9928 16.63 16.0201C16.5831 16.0214 16.5362 16.018 16.49 16.0101Z" fill="white"/>
<path d="M16.49 16.0101C16.427 16.0194 16.363 16.0194 16.3 16.0101C16.2408 15.9828 16.1867 15.9456 16.14 15.9001C16.0495 15.8061 15.9992 15.6805 16 15.5501C15.9896 15.4872 15.9896 15.423 16 15.3601C16.0314 15.3033 16.0683 15.2497 16.11 15.2001C16.2074 15.1122 16.3339 15.0636 16.465 15.0636C16.5962 15.0636 16.7226 15.1122 16.82 15.2001C16.8623 15.2529 16.8992 15.3098 16.93 15.3701C16.9405 15.433 16.9405 15.4972 16.93 15.5601C16.9308 15.6905 16.8806 15.8161 16.79 15.9101C16.7434 15.9556 16.6892 15.9928 16.63 16.0201C16.5831 16.0214 16.5362 16.018 16.49 16.0101Z" fill="white"/>
</g>
</g>
<defs>
<clipPath id="clip0_6_2">
<rect width="1440" height="800" fill="white"/>
</clipPath>
</defs>
</svg>
