<svg width="20" height="20" viewBox="0 0 20 20" fill="none" xmlns="http://www.w3.org/2000/svg">
<path d="M2 10C2 5.58172 5.58172 2 10 2C12.5171 2 14.7288 3.1635 16.1822 4.99321L14.5029 4.98829C13.9506 4.98667 13.5016 5.43307 13.5 5.98535C13.4984 6.53763 13.9448 6.98666 14.4971 6.98828L17.9399 6.99836C17.9783 7.00071 18.017 7.00084 18.0557 6.9987L18.4971 7C18.7628 7.00077 19.0179 6.89576 19.2061 6.70814C19.3942 6.52052 19.5 6.26572 19.5 6L19.5 2C19.5 1.44771 19.0523 1 18.5 1C17.9477 1 17.5 1.44772 17.5 2L17.5 3.44947C15.6875 1.34038 13.023 0 10 0C4.47715 0 0 4.47715 0 10C0 10.5523 0.447715 11 1 11C1.55228 11 2 10.5523 2 10Z" fill="currentColor"/>
<path d="M18 10C18 14.4183 14.4183 18 10 18C7.48295 18 5.27119 16.8365 3.81776 15.0068L5.49707 15.0117C6.04935 15.0133 6.49838 14.5669 6.5 14.0146C6.50161 13.4624 6.05521 13.0133 5.50293 13.0117L2.06007 13.0016C2.02166 12.9993 1.983 12.9992 1.94428 13.0013L1.50293 13C1.23721 12.9992 0.9821 13.1042 0.79393 13.2919C0.605759 13.4795 0.5 13.7343 0.5 14L0.500003 18C0.500003 18.5523 0.947718 19 1.5 19C2.05229 19 2.5 18.5523 2.5 18L2.5 16.5505C4.31255 18.6596 6.97702 20 10 20C15.5228 20 20 15.5228 20 10C20 9.44771 19.5523 9 19 9C18.4477 9 18 9.44771 18 10Z" fill="currentColor"/>
</svg>
