<svg width="1em" viewBox="0 0 16 17" fill="none" xmlns="http://www.w3.org/2000/svg">
<path fill-rule="evenodd" clip-rule="evenodd" d="M7.99992 13.7893C10.9454 13.7893 13.3333 11.4015 13.3333 8.45597C13.3333 5.51045 10.9454 3.12264 7.99992 3.12264C5.0544 3.12264 2.66659 5.51045 2.66659 8.45597C2.66659 11.4015 5.0544 13.7893 7.99992 13.7893ZM7.99992 15.1226C11.6818 15.1226 14.6666 12.1379 14.6666 8.45597C14.6666 4.77407 11.6818 1.78931 7.99992 1.78931C4.31802 1.78931 1.33325 4.77407 1.33325 8.45597C1.33325 12.1379 4.31802 15.1226 7.99992 15.1226Z" fill="currentColor"/>
<path fill-rule="evenodd" clip-rule="evenodd" d="M7.99992 7.12256C8.36811 7.12256 8.66659 7.42104 8.66659 7.78923V11.1231C8.66659 11.4913 8.36811 11.7898 7.99992 11.7898C7.63173 11.7898 7.33325 11.4913 7.33325 11.1231V7.78923C7.33325 7.42104 7.63173 7.12256 7.99992 7.12256Z" fill="currentColor"/>
<circle cx="7.99992" cy="5.78923" r="0.666667" fill="currentColor"/>
</svg>
