<svg width="19" height="20" viewBox="0 0 19 20" fill="none" xmlns="http://www.w3.org/2000/svg">
<path d="M14.7071 5.79289C14.3166 5.40237 13.6834 5.40237 13.2929 5.79289C12.9024 6.18342 12.9024 6.81658 13.2929 7.20711L15.0858 9H6C5.44772 9 5 9.44772 5 10C5 10.5523 5.44772 11 6 11H15.0858L13.2929 12.7929C12.9024 13.1834 12.9024 13.8166 13.2929 14.2071C13.6834 14.5976 14.3166 14.5976 14.7071 14.2071L17.5 11.4142C18.2811 10.6332 18.281 9.36683 17.5 8.58579L14.7071 5.79289Z" fill="currentColor"/>
<path fill-rule="evenodd" clip-rule="evenodd" d="M0 3C0 1.34315 1.34315 0 3 0H9C10.6569 0 12 1.34315 12 3V4C12 4.55228 11.5523 5 11 5C10.4477 5 10 4.55228 10 4V3C10 2.44772 9.55229 2 9 2H3C2.44772 2 2 2.44772 2 3V17C2 17.5523 2.44772 18 3 18H9C9.55229 18 10 17.5523 10 17V16C10 15.4477 10.4477 15 11 15C11.5523 15 12 15.4477 12 16V17C12 18.6569 10.6569 20 9 20H3C1.34315 20 0 18.6569 0 17V3Z" fill="currentColor"/>
</svg>
