<svg width="72" height="72" viewBox="0 0 72 72" fill="none" xmlns="http://www.w3.org/2000/svg">
<path d="M44.6357 7.0932C44.6357 11.011 41.3801 14.1864 37.3635 14.1864C33.3473 14.1864 30.0913 11.011 30.0913 7.0932C30.0917 3.17543 33.3473 0 37.3635 0C41.3798 0 44.6357 3.1758 44.6357 7.0932ZM37.3635 59.5874C33.8491 59.5874 31.0006 62.3662 31.0006 65.7937C31.0006 69.2212 33.8495 72 37.3635 72C40.8775 72 43.7264 69.2212 43.7264 65.7937C43.7264 62.3662 40.8779 59.5874 37.3635 59.5874ZM67.4548 40.8767C64.9445 40.8767 62.9096 38.8924 62.9096 36.4434C62.9096 33.9949 64.9445 32.0101 67.4548 32.0101C69.9656 32.0101 72 33.9949 72 36.4434C71.9996 38.892 69.9648 40.8767 67.4548 40.8767ZM14.5444 36.4434C14.5444 32.5261 11.2888 29.3502 7.2722 29.3502C3.25595 29.3502 0 32.5257 0 36.4434C0 40.3608 3.25556 43.5366 7.2722 43.5366C11.2888 43.5366 14.5444 40.3608 14.5444 36.4434ZM21.2285 10.6743C24.0685 13.4444 24.0685 17.9355 21.2285 20.7052C18.3885 23.4753 13.7841 23.4753 10.9441 20.7052C8.10408 17.9351 8.10408 13.444 10.9441 10.6739C13.7841 7.90385 18.3885 7.90385 21.2285 10.6743ZM54.7847 53.4358C52.6547 55.5134 52.6547 58.8816 54.7843 60.9592C56.9143 63.0368 60.3676 63.0368 62.4976 60.9592C64.6276 58.8816 64.6276 55.5134 62.4976 53.4358C60.368 51.3578 56.9147 51.3578 54.7847 53.4358ZM61.2126 18.1974C59.7926 19.5824 57.49 19.5824 56.0708 18.1974C54.6504 16.812 54.6504 14.5664 56.0708 13.1818C56.4084 12.8523 56.8091 12.591 57.2503 12.4127C57.6914 12.2344 58.1642 12.1426 58.6417 12.1426C59.1192 12.1426 59.592 12.2344 60.0332 12.4127C60.4743 12.591 60.8751 12.8523 61.2126 13.1818C62.6326 14.5668 62.6326 16.8127 61.2126 18.1974ZM21.2285 52.1817C18.3885 49.4116 13.7841 49.4116 10.9441 52.1817C8.10408 54.9518 8.10408 59.4428 10.9441 62.2126C13.7841 64.9827 18.3885 64.9827 21.2281 62.2126C24.0681 59.4428 24.0681 54.9518 21.2285 52.1817Z" fill="#194904"/>
</svg>
