<svg width="48" height="48" viewBox="0 0 48 48" fill="none" xmlns="http://www.w3.org/2000/svg">
<circle opacity="0.5" cx="24" cy="24" r="22" stroke="#C1C1C1" stroke-width="4"/>
<path d="M27.4316 16.5916C27.2457 16.4041 27.0245 16.2554 26.7808 16.1538C26.537 16.0523 26.2756 16 26.0116 16C25.7476 16 25.4862 16.0523 25.2424 16.1538C24.9987 16.2554 24.7775 16.4041 24.5916 16.5916L18.5916 22.5916C18.4041 22.7775 18.2554 22.9987 18.1538 23.2424C18.0523 23.4862 18 23.7476 18 24.0116C18 24.2756 18.0523 24.537 18.1538 24.7808C18.2554 25.0245 18.4041 25.2457 18.5916 25.4316L24.5916 31.4316C24.7775 31.6191 24.9987 31.7678 25.2424 31.8694C25.4862 31.9709 25.7476 32.0232 26.0116 32.0232C26.2756 32.0232 26.537 31.9709 26.7808 31.8694C27.0245 31.7678 27.2457 31.6191 27.4316 31.4316C27.6191 31.2457 27.7678 31.0245 27.8694 30.7808C27.9709 30.537 28.0232 30.2756 28.0232 30.0116C28.0232 29.7476 27.9709 29.4862 27.8694 29.2424C27.7678 28.9987 27.6191 28.7775 27.4316 28.5916L22.8316 24.0116L27.4316 19.4316C27.6191 19.2457 27.7678 19.0245 27.8694 18.7808C27.9709 18.537 28.0232 18.2756 28.0232 18.0116C28.0232 17.7476 27.9709 17.4862 27.8694 17.2424C27.7678 16.9987 27.6191 16.7775 27.4316 16.5916Z" fill="#727272"/>
</svg>
