<svg width="53" height="64" viewBox="0 0 53 64" fill="none" xmlns="http://www.w3.org/2000/svg">
<g clip-path="url(#clip0_6186_539)">
<path d="M26.2647 0C11.7594 0 0 11.7594 0 26.2647V58.1503C0 60.958 2.27587 63.2338 5.08353 63.2338C7.8912 63.2338 10.1671 60.958 10.1671 58.1503V55.5808C10.1671 52.5701 12.6077 50.1295 15.6183 50.1295C18.6289 50.1295 21.0695 52.5701 21.0695 55.5808V58.1503C21.0695 60.958 23.3454 63.2338 26.153 63.2338H26.3764C29.184 63.2338 31.4599 60.958 31.4599 58.1503V55.5808C31.4599 52.5701 33.9005 50.1295 36.9111 50.1295C39.9218 50.1295 42.3624 52.5701 42.3624 55.5808V58.1503C42.3624 60.958 44.6382 63.2338 47.4459 63.2338C50.2535 63.2338 52.5294 60.958 52.5294 58.1503V26.2647C52.5294 11.7588 40.77 0 26.2647 0Z" fill="#62ED82"/>
<path d="M26.2647 44.8739C36.0353 44.8739 43.9559 36.9533 43.9559 27.1828C43.9559 17.4122 36.0353 9.49158 26.2647 9.49158C16.4942 9.49158 8.57355 17.4122 8.57355 27.1828C8.57355 36.9533 16.4942 44.8739 26.2647 44.8739Z" fill="#1FCC40"/>
<path d="M26.2647 43.7289C36.0353 43.7289 43.9559 35.8083 43.9559 26.0377C43.9559 16.2672 36.0353 8.34656 26.2647 8.34656C16.4941 8.34656 8.57353 16.2672 8.57353 26.0377C8.57353 35.8083 16.4941 43.7289 26.2647 43.7289Z" fill="#FCFFEE"/>
<path d="M33.9112 32.6117C38.1342 28.3887 38.1342 21.5419 33.9112 17.319C29.6882 13.096 22.8414 13.096 18.6184 17.319C14.3955 21.5419 14.3955 28.3887 18.6184 32.6117C22.8414 36.8347 29.6882 36.8347 33.9112 32.6117Z" fill="#2F83F5"/>
<path d="M31.8836 30.5841C34.9867 27.4809 34.9867 22.4497 31.8836 19.3466C28.7804 16.2434 23.7492 16.2434 20.6461 19.3466C17.5429 22.4497 17.5429 27.4809 20.6461 30.5841C23.7492 33.6872 28.7804 33.6872 31.8836 30.5841Z" fill="#04021A"/>
</g>
<defs>
<clipPath id="clip0_6186_539">
<rect width="52.53" height="63.2338" fill="white"/>
</clipPath>
</defs>
</svg>
